<mxfile host="app.diagrams.net" modified="2022-07-31T10:42:40.902Z" agent="5.0 (Windows NT 10.0; Win64; x64) AppleWebKit/537.36 (KHTML, like Gecko) Chrome/103.0.0.0 Safari/537.36" etag="Gtge-SpQRdSTmothBYZM" version="20.2.2" type="github">
  <diagram id="dZiRiXK4V6p3eZK-Y_s2" name="Page-1">
    <mxGraphModel dx="1099" dy="562" grid="0" gridSize="10" guides="1" tooltips="1" connect="1" arrows="1" fold="1" page="0" pageScale="1" pageWidth="850" pageHeight="1100" math="0" shadow="0">
      <root>
        <mxCell id="0" />
        <mxCell id="1" parent="0" />
        <mxCell id="satsKV4uC_jRrl14CVsX-21" value="" style="rounded=0;whiteSpace=wrap;html=1;" vertex="1" parent="1">
          <mxGeometry x="175" y="290" width="345" height="190" as="geometry" />
        </mxCell>
        <mxCell id="satsKV4uC_jRrl14CVsX-2" value="Facebook" style="swimlane;fillColor=#dae8fc;strokeColor=#6c8ebf;" vertex="1" parent="1">
          <mxGeometry x="180" y="300" width="150" height="70" as="geometry" />
        </mxCell>
        <mxCell id="satsKV4uC_jRrl14CVsX-5" value="Status" style="text;html=1;strokeColor=none;fillColor=none;align=center;verticalAlign=middle;whiteSpace=wrap;rounded=0;" vertex="1" parent="satsKV4uC_jRrl14CVsX-2">
          <mxGeometry x="35" y="40" width="80" height="30" as="geometry" />
        </mxCell>
        <mxCell id="satsKV4uC_jRrl14CVsX-4" value="Comments" style="text;html=1;strokeColor=none;fillColor=none;align=center;verticalAlign=middle;whiteSpace=wrap;rounded=0;" vertex="1" parent="satsKV4uC_jRrl14CVsX-2">
          <mxGeometry x="35" y="20" width="80" height="30" as="geometry" />
        </mxCell>
        <mxCell id="satsKV4uC_jRrl14CVsX-7" value="YouTube" style="swimlane;fillColor=#dae8fc;strokeColor=#6c8ebf;" vertex="1" parent="1">
          <mxGeometry x="360" y="300" width="150" height="70" as="geometry" />
        </mxCell>
        <mxCell id="satsKV4uC_jRrl14CVsX-9" value="Comments" style="text;html=1;strokeColor=none;fillColor=none;align=center;verticalAlign=middle;whiteSpace=wrap;rounded=0;" vertex="1" parent="satsKV4uC_jRrl14CVsX-7">
          <mxGeometry x="35" y="20" width="80" height="30" as="geometry" />
        </mxCell>
        <mxCell id="satsKV4uC_jRrl14CVsX-10" value="Online blogs" style="swimlane;fillColor=#dae8fc;strokeColor=#6c8ebf;" vertex="1" parent="1">
          <mxGeometry x="210" y="400" width="150" height="70" as="geometry" />
        </mxCell>
        <mxCell id="satsKV4uC_jRrl14CVsX-11" value="Comments" style="text;html=1;strokeColor=none;fillColor=none;align=center;verticalAlign=middle;whiteSpace=wrap;rounded=0;" vertex="1" parent="satsKV4uC_jRrl14CVsX-10">
          <mxGeometry x="40" y="20" width="80" height="30" as="geometry" />
        </mxCell>
        <mxCell id="satsKV4uC_jRrl14CVsX-12" value="Contents" style="text;html=1;strokeColor=none;fillColor=none;align=center;verticalAlign=middle;whiteSpace=wrap;rounded=0;" vertex="1" parent="satsKV4uC_jRrl14CVsX-10">
          <mxGeometry x="40" y="40" width="80" height="30" as="geometry" />
        </mxCell>
        <mxCell id="satsKV4uC_jRrl14CVsX-16" value="" style="endArrow=none;dashed=1;html=1;dashPattern=1 3;strokeWidth=2;rounded=0;exitX=0.5;exitY=1;exitDx=0;exitDy=0;entryX=0.5;entryY=0;entryDx=0;entryDy=0;" edge="1" parent="1" source="satsKV4uC_jRrl14CVsX-5" target="satsKV4uC_jRrl14CVsX-10">
          <mxGeometry width="50" height="50" relative="1" as="geometry">
            <mxPoint x="200" y="490" as="sourcePoint" />
            <mxPoint x="250" y="440" as="targetPoint" />
          </mxGeometry>
        </mxCell>
        <mxCell id="satsKV4uC_jRrl14CVsX-17" value="" style="endArrow=none;dashed=1;html=1;dashPattern=1 3;strokeWidth=2;rounded=0;exitX=0.5;exitY=0;exitDx=0;exitDy=0;entryX=0.5;entryY=1;entryDx=0;entryDy=0;" edge="1" parent="1" source="satsKV4uC_jRrl14CVsX-10" target="satsKV4uC_jRrl14CVsX-7">
          <mxGeometry width="50" height="50" relative="1" as="geometry">
            <mxPoint x="520" y="440" as="sourcePoint" />
            <mxPoint x="570" y="390" as="targetPoint" />
          </mxGeometry>
        </mxCell>
        <mxCell id="satsKV4uC_jRrl14CVsX-18" value="" style="endArrow=none;dashed=1;html=1;dashPattern=1 3;strokeWidth=2;rounded=0;exitX=1;exitY=0.5;exitDx=0;exitDy=0;entryX=0;entryY=0.5;entryDx=0;entryDy=0;" edge="1" parent="1" source="satsKV4uC_jRrl14CVsX-2" target="satsKV4uC_jRrl14CVsX-7">
          <mxGeometry width="50" height="50" relative="1" as="geometry">
            <mxPoint x="510" y="460" as="sourcePoint" />
            <mxPoint x="560" y="410" as="targetPoint" />
          </mxGeometry>
        </mxCell>
        <mxCell id="satsKV4uC_jRrl14CVsX-22" value="&lt;h1&gt;&lt;font style=&quot;font-size: 21px;&quot;&gt;Data Acquisition&lt;/font&gt;&lt;/h1&gt;" style="text;html=1;strokeColor=none;fillColor=none;spacing=5;spacingTop=-20;whiteSpace=wrap;overflow=hidden;rounded=0;" vertex="1" parent="1">
          <mxGeometry x="247.5" y="250" width="200" height="40" as="geometry" />
        </mxCell>
        <mxCell id="satsKV4uC_jRrl14CVsX-30" value="7800 Records" style="shape=datastore;whiteSpace=wrap;html=1;fillColor=#e1d5e7;strokeColor=#9673a6;" vertex="1" parent="1">
          <mxGeometry x="430" y="395" width="60" height="80" as="geometry" />
        </mxCell>
        <mxCell id="satsKV4uC_jRrl14CVsX-35" value="" style="html=1;outlineConnect=0;whiteSpace=wrap;fillColor=#AFFFAF;shape=mxgraph.archimate3.process;" vertex="1" parent="1">
          <mxGeometry x="530" y="365" width="60" height="40" as="geometry" />
        </mxCell>
        <mxCell id="satsKV4uC_jRrl14CVsX-36" value="" style="shape=flexArrow;endArrow=classic;html=1;rounded=0;exitX=1;exitY=0.5;exitDx=0;exitDy=0;fillColor=#d5e8d4;strokeColor=#82b366;" edge="1" parent="1" source="satsKV4uC_jRrl14CVsX-10" target="satsKV4uC_jRrl14CVsX-30">
          <mxGeometry width="50" height="50" relative="1" as="geometry">
            <mxPoint x="490" y="560" as="sourcePoint" />
            <mxPoint x="540" y="510" as="targetPoint" />
          </mxGeometry>
        </mxCell>
        <mxCell id="satsKV4uC_jRrl14CVsX-39" value="&lt;b&gt;&lt;font style=&quot;font-size: 15px;&quot;&gt;Manual Data Selection&lt;/font&gt;&lt;/b&gt;" style="shape=cube;whiteSpace=wrap;html=1;boundedLbl=1;backgroundOutline=1;darkOpacity=0.05;darkOpacity2=0.1;fillColor=#fff2cc;strokeColor=#d6b656;" vertex="1" parent="1">
          <mxGeometry x="600" y="329.38" width="130" height="111.25" as="geometry" />
        </mxCell>
        <mxCell id="satsKV4uC_jRrl14CVsX-40" value="" style="html=1;outlineConnect=0;whiteSpace=wrap;fillColor=#AFFFAF;shape=mxgraph.archimate3.process;" vertex="1" parent="1">
          <mxGeometry x="740" y="365" width="60" height="40" as="geometry" />
        </mxCell>
        <mxCell id="satsKV4uC_jRrl14CVsX-42" value="5112 Records" style="shape=datastore;whiteSpace=wrap;html=1;fillColor=#e1d5e7;strokeColor=#9673a6;" vertex="1" parent="1">
          <mxGeometry x="820" y="329.38" width="80" height="110" as="geometry" />
        </mxCell>
        <mxCell id="satsKV4uC_jRrl14CVsX-43" value="&lt;b style=&quot;font-size: 12px;&quot;&gt;&lt;font style=&quot;font-size: 15px;&quot;&gt;Trimmed Data&lt;/font&gt;&lt;/b&gt;" style="text;html=1;strokeColor=none;fillColor=none;align=center;verticalAlign=middle;whiteSpace=wrap;rounded=0;fontSize=15;" vertex="1" parent="1">
          <mxGeometry x="800" y="290" width="120" height="30" as="geometry" />
        </mxCell>
        <mxCell id="satsKV4uC_jRrl14CVsX-46" value="&lt;b style=&quot;font-size: 12px;&quot;&gt;&lt;font style=&quot;font-size: 15px;&quot;&gt;Manual Labeling&lt;/font&gt;&lt;/b&gt;" style="shape=cube;whiteSpace=wrap;html=1;boundedLbl=1;backgroundOutline=1;darkOpacity=0.05;darkOpacity2=0.1;fontSize=21;fillColor=#fff2cc;strokeColor=#d6b656;" vertex="1" parent="1">
          <mxGeometry x="780" y="500" width="130" height="110.62" as="geometry" />
        </mxCell>
        <mxCell id="satsKV4uC_jRrl14CVsX-47" value="" style="html=1;outlineConnect=0;whiteSpace=wrap;fillColor=#AFFFAF;shape=mxgraph.archimate3.process;rotation=90;" vertex="1" parent="1">
          <mxGeometry x="847.5" y="450" width="35" height="35" as="geometry" />
        </mxCell>
        <mxCell id="satsKV4uC_jRrl14CVsX-49" value="" style="html=1;outlineConnect=0;whiteSpace=wrap;fillColor=#AFFFAF;shape=mxgraph.archimate3.process;rotation=-180;" vertex="1" parent="1">
          <mxGeometry x="695" y="535.31" width="60" height="40" as="geometry" />
        </mxCell>
        <mxCell id="satsKV4uC_jRrl14CVsX-50" value="Data Preprocessing" style="rounded=0;whiteSpace=wrap;html=1;fontSize=21;fillColor=#dae8fc;strokeColor=#6c8ebf;" vertex="1" parent="1">
          <mxGeometry x="525" y="525.81" width="150" height="59" as="geometry" />
        </mxCell>
        <mxCell id="satsKV4uC_jRrl14CVsX-54" value="" style="html=1;outlineConnect=0;whiteSpace=wrap;fillColor=#AFFFAF;shape=mxgraph.archimate3.process;rotation=-180;" vertex="1" parent="1">
          <mxGeometry x="445" y="535.31" width="60" height="40" as="geometry" />
        </mxCell>
        <mxCell id="satsKV4uC_jRrl14CVsX-55" value="Data Testing" style="shape=cube;whiteSpace=wrap;html=1;boundedLbl=1;backgroundOutline=1;darkOpacity=0.05;darkOpacity2=0.1;fontSize=15;fillColor=#e1d5e7;strokeColor=#9673a6;" vertex="1" parent="1">
          <mxGeometry x="250" y="517.81" width="155" height="75" as="geometry" />
        </mxCell>
      </root>
    </mxGraphModel>
  </diagram>
</mxfile>
